<svg xmlns="http://www.w3.org/2000/svg" width="63" height="63" viewBox="0 0 63 63">
  <g id="Grupo_66" data-name="Grupo 66" transform="translate(-824 -641)">
    <g id="Grupo_63" data-name="Grupo 63">
      <circle id="Elipse_26" data-name="Elipse 26" cx="31.5" cy="31.5" r="31.5" transform="translate(824 641)"/>
      <path id="apple-brands" d="M30,51.552a7.712,7.712,0,0,1,4.13-7,8.875,8.875,0,0,0-7-3.684c-2.932-.231-6.138,1.71-7.31,1.71-1.239,0-4.081-1.627-6.311-1.627C8.9,41.02,4,44.622,4,51.949a20.588,20.588,0,0,0,1.19,6.707C6.247,61.688,10.063,69.122,14.045,69c2.082-.05,3.552-1.479,6.261-1.479C22.933,67.52,24.3,69,26.617,69c4.015-.058,7.467-6.815,8.475-9.855A8.189,8.189,0,0,1,30,51.552ZM25.32,37.989A7.78,7.78,0,0,0,27.3,32a8.759,8.759,0,0,0-5.609,2.883,7.9,7.9,0,0,0-2.115,5.939C21.735,40.987,23.7,39.88,25.32,37.989Z" transform="translate(836 620)" fill="#fff"/>
    </g>
  </g>
</svg>
