<svg xmlns="http://www.w3.org/2000/svg" width="63" height="63" viewBox="0 0 63 63">
  <g id="Grupo_67" data-name="Grupo 67" transform="translate(-739 -641)">
    <g id="Grupo_64" data-name="Grupo 64">
      <circle id="Elipse_25" data-name="Elipse 25" cx="31.5" cy="31.5" r="31.5" transform="translate(739 641)" fill="#2468df"/>
      <path id="facebook-brands" d="M46.02,27.01A19.01,19.01,0,1,0,24.04,45.79V32.505H19.211v-5.5H24.04V22.822c0-4.764,2.836-7.4,7.18-7.4a29.256,29.256,0,0,1,4.256.371v4.676h-2.4a2.748,2.748,0,0,0-3.1,2.969V27.01h5.272l-.843,5.5H29.98V45.79A19.017,19.017,0,0,0,46.02,27.01Z" transform="translate(743 646)" fill="#fff"/>
    </g>
  </g>
</svg>
