<svg xmlns="http://www.w3.org/2000/svg" viewBox="0 0 820 657"><defs><style>.cls-1{fill:#fff;}.cls-2{fill:#47a3a6;}.cls-3{fill:none;}.cls-4{fill:#707070;}.cls-5{fill:#ced6d6;}.cls-6{fill:#c44346;}</style></defs><title>Dale imagotipoRecurso 3</title><g id="Capa_2" data-name="Capa 2"><g id="Capa_1-2" data-name="Capa 1"><g id="Rectángulo_48-2" data-name="Rectángulo 48-2"><rect class="cls-1" width="820" height="657" rx="8"/></g><g id="Rectángulo_49" data-name="Rectángulo 49"><rect class="cls-2" x="699" y="66" width="57" height="57" rx="8"/></g><g id="Rectángulo_62" data-name="Rectángulo 62"><rect class="cls-2" x="699" y="534" width="57" height="57" rx="8"/></g><g id="Rectángulo_50" data-name="Rectángulo 50"><rect class="cls-3" x="699" y="223" width="57" height="57" rx="8"/><path class="cls-4" d="M748,280H707a8,8,0,0,1-8-8V231a8,8,0,0,1,8-8h41a8,8,0,0,1,8,8v41A8,8,0,0,1,748,280Zm-41-53a4,4,0,0,0-4,4v41a4,4,0,0,0,4,4h41a4,4,0,0,0,4-4V231a4,4,0,0,0-4-4Z"/></g><g id="Rectángulo_60" data-name="Rectángulo 60"><rect class="cls-3" x="699" y="386" width="57" height="57" rx="8"/><path class="cls-4" d="M748,443H707a8,8,0,0,1-8-8V394a8,8,0,0,1,8-8h41a8,8,0,0,1,8,8v41A8,8,0,0,1,748,443Zm-41-53a4,4,0,0,0-4,4v41a4,4,0,0,0,4,4h41a4,4,0,0,0,4-4V394a4,4,0,0,0-4-4Z"/></g><g id="Rectángulo_54" data-name="Rectángulo 54"><path class="cls-5" d="M279.5,66h237A28.5,28.5,0,0,1,545,94.5h0A28.5,28.5,0,0,1,516.5,123h-237A28.5,28.5,0,0,1,251,94.5h0A28.5,28.5,0,0,1,279.5,66Z"/></g><g id="Rectángulo_63" data-name="Rectángulo 63"><path class="cls-5" d="M279.5,534h237A28.5,28.5,0,0,1,545,562.5h0A28.5,28.5,0,0,1,516.5,591h-237A28.5,28.5,0,0,1,251,562.5h0A28.5,28.5,0,0,1,279.5,534Z"/></g><g id="Rectángulo_55" data-name="Rectángulo 55"><path class="cls-5" d="M279.5,223h237A28.5,28.5,0,0,1,545,251.5h0A28.5,28.5,0,0,1,516.5,280h-237A28.5,28.5,0,0,1,251,251.5h0A28.5,28.5,0,0,1,279.5,223Z"/></g><g id="Rectángulo_61" data-name="Rectángulo 61"><path class="cls-5" d="M279.5,386h237A28.5,28.5,0,0,1,545,414.5h0A28.5,28.5,0,0,1,516.5,443h-237A28.5,28.5,0,0,1,251,414.5h0A28.5,28.5,0,0,1,279.5,386Z"/></g><g id="Grupo_36" data-name="Grupo 36"><g id="Línea_9" data-name="Línea 9"><path class="cls-1" d="M725.5,108.75a1.46,1.46,0,0,1-1-.37l-15-13a1.5,1.5,0,0,1,2-2.26l15,13a1.5,1.5,0,0,1-1,2.63Z"/></g><g id="Trazado_34" data-name="Trazado 34"><path class="cls-1" d="M725.5,108.75a1.45,1.45,0,0,1-.92-.32,1.49,1.49,0,0,1-.26-2.1l19.75-25.25a1.5,1.5,0,0,1,2.36,1.84l-19.75,25.25A1.49,1.49,0,0,1,725.5,108.75Z"/></g></g><g id="Grupo_41" data-name="Grupo 41"><g id="Línea_9-2" data-name="Línea 9-2"><path class="cls-1" d="M725.5,576.75a1.46,1.46,0,0,1-1-.37l-15-13a1.5,1.5,0,1,1,2-2.26l15,13a1.5,1.5,0,0,1-1,2.63Z"/></g><g id="Trazado_34-2" data-name="Trazado 34-2"><path class="cls-1" d="M725.5,576.75a1.45,1.45,0,0,1-.92-.32,1.49,1.49,0,0,1-.26-2.1l19.75-25.25a1.5,1.5,0,1,1,2.36,1.84l-19.75,25.25A1.49,1.49,0,0,1,725.5,576.75Z"/></g></g><g id="Grupo_38" data-name="Grupo 38"><g id="Rectángulo_59" data-name="Rectángulo 59"><path class="cls-6" d="M113,41h0a6,6,0,0,1,6,6V76a6,6,0,0,1-6,6h0a6,6,0,0,1-6-6V47A6,6,0,0,1,113,41Z"/></g><g id="Rectángulo_58" data-name="Rectángulo 58"><path class="cls-6" d="M113,65h0a18,18,0,0,1,18,18v65H95V83A18,18,0,0,1,113,65Z"/></g></g><g id="Grupo_42" data-name="Grupo 42"><g id="Rectángulo_59-2" data-name="Rectángulo 59-2"><path class="cls-6" d="M113,509h0a6,6,0,0,1,6,6v29a6,6,0,0,1-6,6h0a6,6,0,0,1-6-6V515A6,6,0,0,1,113,509Z"/></g><g id="Rectángulo_58-2" data-name="Rectángulo 58-2"><path class="cls-6" d="M113,533h0a18,18,0,0,1,18,18v65H95V551A18,18,0,0,1,113,533Z"/></g></g><g id="Grupo_39" data-name="Grupo 39"><g id="Rectángulo_59-3" data-name="Rectángulo 59-3"><path class="cls-6" d="M113,198h0a6,6,0,0,1,6,6v29a6,6,0,0,1-6,6h0a6,6,0,0,1-6-6V204A6,6,0,0,1,113,198Z"/></g><g id="Rectángulo_58-3" data-name="Rectángulo 58-3"><path class="cls-6" d="M113,222h0a18,18,0,0,1,18,18v65H95V240A18,18,0,0,1,113,222Z"/></g></g><g id="Grupo_40" data-name="Grupo 40"><g id="Rectángulo_59-4" data-name="Rectángulo 59-4"><path class="cls-6" d="M113,361h0a6,6,0,0,1,6,6v29a6,6,0,0,1-6,6h0a6,6,0,0,1-6-6V367A6,6,0,0,1,113,361Z"/></g><g id="Rectángulo_58-4" data-name="Rectángulo 58-4"><path class="cls-6" d="M113,385h0a18,18,0,0,1,18,18v65H95V403A18,18,0,0,1,113,385Z"/></g></g></g></g></svg>