<svg xmlns="http://www.w3.org/2000/svg" viewBox="0 0 820 657"><defs><style>.cls-1{fill:#fff;}.cls-2{fill:#853f42;}.cls-3{fill:#74f634;}.cls-4{fill:#e1343b;}.cls-5{fill:#ecb45f;}.cls-6{fill:#c8d7d7;}.cls-7{fill:#68eef2;}.cls-8{isolation:isolate;}</style></defs><title>Dale imagotipoRecurso 1</title><g id="Capa_2" data-name="Capa 2"><g id="Capa_1-2" data-name="Capa 1"><g id="Rectángulo_64-2" data-name="Rectángulo 64-2"><rect class="cls-1" width="820" height="657" rx="8"/></g><g id="Grupo_43" data-name="Grupo 43"><g id="Rectángulo_45" data-name="Rectángulo 45"><path class="cls-2" d="M470.74,57.91h0a10,10,0,0,1,2.69,13.83l-43.17,64a10,10,0,0,1-13.83,2.69h0a10,10,0,0,1-2.69-13.83l43.17-64A10,10,0,0,1,470.74,57.91Z"/></g><g id="Trazado_29" data-name="Trazado 29"><path class="cls-3" d="M366.91,120.6,347.48,87.34s0-16.94,19.43-11c9-18.93,9-6,9-6s-1-16.94,8-10,2,60.17,2,60.17Z"/></g><g id="Rectángulo_47" data-name="Rectángulo 47"><path class="cls-4" d="M407,42h0a6.23,6.23,0,0,1,6.23,6.23V123a6.23,6.23,0,0,1-6.23,6.23h0a6.23,6.23,0,0,1-6.23-6.23V48.23A6.23,6.23,0,0,1,407,42Z"/></g><g id="Rectángulo_46" data-name="Rectángulo 46"><rect class="cls-4" x="385.84" y="69.4" width="42.35" height="59.79" rx="16"/></g><g id="Trazado_28" data-name="Trazado 28"><path class="cls-5" d="M341,100.54l29.89,64.77h57.3l39.86-64.77Z"/></g></g><g id="Rectángulo_65" data-name="Rectángulo 65"><path class="cls-6" d="M169,251H643a31,31,0,0,1,31,31h0a31,31,0,0,1-31,31H169a31,31,0,0,1-31-31h0A31,31,0,0,1,169,251Z"/></g><g id="Rectángulo_66" data-name="Rectángulo 66"><path class="cls-6" d="M169,368H643a31,31,0,0,1,31,31h0a31,31,0,0,1-31,31H169a31,31,0,0,1-31-31h0A31,31,0,0,1,169,368Z"/></g><g id="Rectángulo_68" data-name="Rectángulo 68"><path class="cls-7" d="M510,539H643a31,31,0,0,1,31,31h0a31,31,0,0,1-31,31H510a31,31,0,0,1-31-31h0A31,31,0,0,1,510,539Z"/></g><g id="Metodo_de_pago" data-name="Metodo de pago" class="cls-8"><g class="cls-8"><path class="cls-1" d="M313.11,277.83l-5.47,7.3H307l-5.36-7.32V290H298.5v-16.8h3.64l5.26,7.23,5.26-7.23h3.62V290h-3.17Z"/><path class="cls-1" d="M321.54,285.13c.19,1.46,1.46,2.52,3.52,2.52a4.87,4.87,0,0,0,3.17-1.11l1.87,1.85a7.22,7.22,0,0,1-5.08,1.92c-4.08,0-6.51-2.52-6.51-6.31a5.92,5.92,0,0,1,6.29-6.19c4,0,6.43,2.45,6,7.32ZM328,282.7c-.19-1.53-1.39-2.3-3.07-2.3a3.2,3.2,0,0,0-3.32,2.3Z"/><path class="cls-1" d="M336.66,274.83v3.36h3.26v2.52h-3.29v5.11a1.47,1.47,0,0,0,1.54,1.68,3.28,3.28,0,0,0,1.41-.36l.82,2.5a6.39,6.39,0,0,1-2.42.5c-2.57.1-4.25-1.36-4.25-4.32v-5.11h-2.21v-2.52h2.21v-3.05Z"/><path class="cls-1" d="M353.86,284.1a6.16,6.16,0,1,1-6.19-6.17A6,6,0,0,1,353.86,284.1Zm-9.38,0a3.23,3.23,0,1,0,6.43,0,3.34,3.34,0,0,0-3.21-3.51A3.25,3.25,0,0,0,344.48,284.1Z"/><path class="cls-1" d="M368.17,273.22V290h-2.74l-.19-1.63a4.32,4.32,0,0,1-3.82,1.89,5.8,5.8,0,0,1-6.09-6.19c0-4.08,2.56-6.19,6-6.19a4.89,4.89,0,0,1,3.89,1.9v-6.56Zm-9.91,10.85a3.32,3.32,0,0,0,3.36,3.48,3.47,3.47,0,0,0,0-6.93A3.26,3.26,0,0,0,358.26,284.07Z"/><path class="cls-1" d="M382.47,284.1a6.16,6.16,0,1,1-6.19-6.17A6,6,0,0,1,382.47,284.1Zm-9.38,0a3.23,3.23,0,1,0,6.43,0,3.35,3.35,0,0,0-3.22-3.51A3.25,3.25,0,0,0,373.09,284.1Z"/><path class="cls-1" d="M401.62,273.22V290h-2.73l-.19-1.63a4.33,4.33,0,0,1-3.82,1.89,5.81,5.81,0,0,1-6.1-6.19c0-4.08,2.57-6.19,6-6.19a4.89,4.89,0,0,1,3.89,1.9v-6.56Zm-9.91,10.85a3.4,3.4,0,1,0,6.79,0,3.37,3.37,0,0,0-3.43-3.45A3.26,3.26,0,0,0,391.71,284.07Z"/><path class="cls-1" d="M406.93,285.13c.19,1.46,1.46,2.52,3.52,2.52a4.85,4.85,0,0,0,3.17-1.11l1.88,1.85a7.26,7.26,0,0,1-5.09,1.92c-4.08,0-6.51-2.52-6.51-6.31a5.92,5.92,0,0,1,6.29-6.19c4,0,6.43,2.45,6,7.32Zm6.43-2.43c-.19-1.53-1.39-2.3-3.07-2.3a3.2,3.2,0,0,0-3.32,2.3Z"/><path class="cls-1" d="M423.27,294.94V278.17H426l.19,1.63a4.69,4.69,0,0,1,3.84-1.9,5.92,5.92,0,0,1,6.07,6.2c0,3.45-2.18,6.19-6,6.19-1.25,0-3.1-.39-3.94-1.68v6.33Zm9.91-10.84a3.36,3.36,0,0,0-6.72,0,3.36,3.36,0,1,0,6.72,0Z"/><path class="cls-1" d="M447.65,278.17h2.81V290H447.7l-.14-1.73a4.49,4.49,0,0,1-3.84,2.09c-3.51,0-6.1-2.14-6.1-6.29s2.71-6.22,6.17-6.19a4.33,4.33,0,0,1,3.77,1.92Zm-7.1,5.9a3.39,3.39,0,0,0,3.51,3.6c4.6,0,4.6-7.17,0-7.17A3.37,3.37,0,0,0,440.55,284.07Z"/><path class="cls-1" d="M462.22,277l2.16,1.63-1.32,1.68a5.05,5.05,0,0,1,1.25,3.5,4.69,4.69,0,0,1-2.5,4.42,4,4,0,0,1,2.45,3.91c0,3.27-2.49,5.28-5.93,5.28s-6-2.09-6-5.28h2.91c0,1.54,1.41,2.55,3.09,2.55s3-.92,3-2.55-1.53-2.37-3-2.37c-3.69,0-6-2.26-6-6a5.77,5.77,0,0,1,6-6,4.69,4.69,0,0,1,2.72.68Zm-7,6.81a3.09,3.09,0,1,0,6.17,0,3.09,3.09,0,1,0-6.17,0Z"/><path class="cls-1" d="M477.94,284.1a6.16,6.16,0,1,1-6.19-6.17A6,6,0,0,1,477.94,284.1Zm-9.38,0a3.23,3.23,0,1,0,6.43,0,3.35,3.35,0,0,0-3.22-3.51A3.25,3.25,0,0,0,468.56,284.1Z"/></g></g><g id="Enviar_o_retirar" data-name="Enviar o retirar" class="cls-8"><g class="cls-8"><path class="cls-1" d="M314,407H301.39V390.2H314v3.07h-9.43v3.86h9.09v3h-9.09v3.79H314Z"/><path class="cls-1" d="M324.91,407v-6.19c0-1.8-1-3.17-2.85-3.17a3.12,3.12,0,0,0-3,3.31V407h-2.9V395.14h2.61l.2,1.61a5.36,5.36,0,0,1,3.88-1.78c2.79,0,5,2.09,5,5.81V407Z"/><path class="cls-1" d="M341.88,395.14l-5,11.91h-3.17l-5.06-11.91h3.19l1.63,3.92,1.83,5,1.8-4.95,1.63-4Z"/><path class="cls-1" d="M346.49,391.83a1.73,1.73,0,0,1-3.46,0A1.73,1.73,0,0,1,346.49,391.83Zm-3.19,3.29V407h2.92V395.12Z"/><path class="cls-1" d="M358.25,395.17h2.81V407H358.3l-.15-1.73a4.49,4.49,0,0,1-3.84,2.09c-3.5,0-6.09-2.14-6.09-6.29s2.71-6.22,6.16-6.19a4.33,4.33,0,0,1,3.77,1.92Zm-7.11,5.9a3.39,3.39,0,0,0,3.51,3.6c4.61,0,4.61-7.17,0-7.17A3.37,3.37,0,0,0,351.14,401.07Z"/><path class="cls-1" d="M366.24,395.17l.22,1.37a3.48,3.48,0,0,1,3.33-1.69,4.53,4.53,0,0,1,3,1.13l-1.32,2.55a2.9,2.9,0,0,0-2.11-.77,2.73,2.73,0,0,0-3,3V407h-2.93V395.17Z"/><path class="cls-1" d="M390.55,401.1a6.16,6.16,0,1,1-6.19-6.17A6,6,0,0,1,390.55,401.1Zm-9.38,0a3.23,3.23,0,1,0,6.43,0,3.35,3.35,0,0,0-3.22-3.51A3.25,3.25,0,0,0,381.17,401.1Z"/><path class="cls-1" d="M400.13,395.17l.21,1.37a3.5,3.5,0,0,1,3.34-1.69,4.55,4.55,0,0,1,3.05,1.13l-1.32,2.55a2.9,2.9,0,0,0-2.11-.77,2.74,2.74,0,0,0-3,3V407h-2.93V395.17Z"/><path class="cls-1" d="M410.33,402.13c.19,1.46,1.46,2.52,3.52,2.52a4.87,4.87,0,0,0,3.17-1.11l1.88,1.85a7.26,7.26,0,0,1-5.09,1.92c-4.08,0-6.51-2.52-6.51-6.31a5.92,5.92,0,0,1,6.29-6.19c4,0,6.43,2.45,6,7.32Zm6.43-2.43c-.19-1.53-1.39-2.3-3.07-2.3a3.2,3.2,0,0,0-3.32,2.3Z"/><path class="cls-1" d="M425.45,391.83v3.36h3.26v2.52h-3.29v5.11A1.47,1.47,0,0,0,427,404.5a3.32,3.32,0,0,0,1.42-.36l.81,2.5a6.35,6.35,0,0,1-2.42.5c-2.57.1-4.25-1.36-4.25-4.32v-5.11h-2.21v-2.52h2.21v-3.05Z"/><path class="cls-1" d="M434.09,391.83a1.73,1.73,0,0,1-3.46,0A1.73,1.73,0,0,1,434.09,391.83Zm-3.2,3.29V407h2.93V395.12Z"/><path class="cls-1" d="M439.17,395.17l.22,1.37a3.49,3.49,0,0,1,3.34-1.69,4.55,4.55,0,0,1,3,1.13l-1.33,2.55a2.9,2.9,0,0,0-2.11-.77,2.73,2.73,0,0,0-2.95,3V407h-2.93V395.17Z"/><path class="cls-1" d="M456.26,395.17h2.81V407h-2.76l-.14-1.73a4.5,4.5,0,0,1-3.84,2.09c-3.51,0-6.1-2.14-6.1-6.29s2.71-6.22,6.17-6.19a4.35,4.35,0,0,1,3.77,1.92Zm-7.1,5.9a3.39,3.39,0,0,0,3.5,3.6c4.61,0,4.61-7.17,0-7.17A3.37,3.37,0,0,0,449.16,401.07Z"/><path class="cls-1" d="M464.25,395.17l.22,1.37a3.49,3.49,0,0,1,3.34-1.69,4.5,4.5,0,0,1,3,1.13l-1.32,2.55a2.9,2.9,0,0,0-2.11-.77,2.73,2.73,0,0,0-2.95,3V407h-2.93V395.17Z"/></g></g><g id="Pedir" class="cls-8"><g class="cls-8"><path class="cls-1" d="M555.57,573.06h-4.75V578h-3.17V561.2l7.92,0C563.78,561.17,563.8,573.06,555.57,573.06Zm-4.75-2.91h4.75a3,3,0,1,0,0-5.95h-4.75Z"/><path class="cls-1" d="M565.65,573.13c.19,1.46,1.46,2.52,3.53,2.52a4.84,4.84,0,0,0,3.16-1.11l1.88,1.85a7.26,7.26,0,0,1-5.09,1.92c-4.08,0-6.51-2.52-6.51-6.31a5.92,5.92,0,0,1,6.29-6.19c4,0,6.44,2.45,6,7.32Zm6.43-2.43c-.19-1.53-1.39-2.3-3.07-2.3a3.18,3.18,0,0,0-3.31,2.3Z"/><path class="cls-1" d="M589.43,561.22V578H586.7l-.2-1.63a4.3,4.3,0,0,1-3.81,1.89,5.81,5.81,0,0,1-6.1-6.19c0-4.08,2.57-6.19,6-6.19,1.24,0,3.19.67,3.88,1.9v-6.56Zm-9.91,10.85a3.4,3.4,0,1,0,6.79,0,3.37,3.37,0,0,0-3.43-3.45A3.26,3.26,0,0,0,579.52,572.07Z"/><path class="cls-1" d="M595.17,562.83a1.73,1.73,0,0,1-3.46,0A1.73,1.73,0,0,1,595.17,562.83ZM592,566.12V578h2.92V566.12Z"/><path class="cls-1" d="M600.26,566.17l.21,1.37a3.49,3.49,0,0,1,3.34-1.69,4.55,4.55,0,0,1,3.05,1.13l-1.32,2.55a2.92,2.92,0,0,0-2.12-.77,2.73,2.73,0,0,0-2.95,3V578h-2.93V566.17Z"/></g></g></g></g></svg>