<svg xmlns="http://www.w3.org/2000/svg" viewBox="0 0 820 657"><defs><style>.cls-1{fill:#fff;}.cls-2{fill:#68eef2;}.cls-3{isolation:isolate;}.cls-4{fill:#853f42;}.cls-5{fill:#74f634;}.cls-6{fill:#e1343b;}.cls-7{fill:#ecb45f;}.cls-8{fill:#707070;}.cls-9{fill:#6c7474;}.cls-10{fill:#d6d6d6;}</style></defs><title>Dale imagotipoRecurso 5</title><g id="Capa_2" data-name="Capa 2"><g id="Capa_1-2" data-name="Capa 1"><g id="Rectángulo_69-2" data-name="Rectángulo 69-2"><rect class="cls-1" width="820" height="657" rx="8"/></g><g id="Rectángulo_70" data-name="Rectángulo 70"><path class="cls-2" d="M534,484H667a31,31,0,0,1,31,31h0a31,31,0,0,1-31,31H534a31,31,0,0,1-31-31h0A31,31,0,0,1,534,484Z"/></g><g id="Rectángulo_71" data-name="Rectángulo 71"><path class="cls-2" d="M161,484H294a31,31,0,0,1,31,31h0a31,31,0,0,1-31,31H161a31,31,0,0,1-31-31h0A31,31,0,0,1,161,484Z"/></g><g id="Rectángulo_72" data-name="Rectángulo 72"><path class="cls-2" d="M158.5,302h0A31.5,31.5,0,0,1,190,333.5h0A31.5,31.5,0,0,1,158.5,365h0A31.5,31.5,0,0,1,127,333.5h0A31.5,31.5,0,0,1,158.5,302Z"/></g><g id="Mapa" class="cls-3"><g class="cls-3"><path class="cls-1" d="M583.47,510.83l-5.48,7.3h-.62L572,510.81V523h-3.17v-16.8h3.65l5.25,7.23,5.26-7.23h3.62V523h-3.16Z"/><path class="cls-1" d="M599,511.17h2.81V523h-2.76l-.15-1.73a4.49,4.49,0,0,1-3.84,2.09c-3.5,0-6.1-2.14-6.1-6.29s2.72-6.22,6.17-6.19a4.33,4.33,0,0,1,3.77,1.92Zm-7.11,5.9a3.39,3.39,0,0,0,3.51,3.6c4.6,0,4.6-7.17,0-7.17A3.37,3.37,0,0,0,591.91,517.07Z"/><path class="cls-1" d="M604.3,527.94V511.17H607l.19,1.63a4.72,4.72,0,0,1,3.84-1.9,5.93,5.93,0,0,1,6.08,6.2c0,3.45-2.19,6.19-6,6.19-1.25,0-3.1-.39-3.94-1.68v6.33Zm9.91-10.84a3.36,3.36,0,0,0-6.72,0,3.36,3.36,0,0,0,6.72,0Z"/><path class="cls-1" d="M628.68,511.17h2.81V523h-2.76l-.15-1.73a4.49,4.49,0,0,1-3.84,2.09c-3.5,0-6.09-2.14-6.09-6.29s2.71-6.22,6.17-6.19a4.32,4.32,0,0,1,3.76,1.92Zm-7.1,5.9a3.39,3.39,0,0,0,3.5,3.6c4.61,0,4.61-7.17,0-7.17A3.37,3.37,0,0,0,621.58,517.07Z"/></g></g><g id="Datos" class="cls-3"><g class="cls-3"><path class="cls-1" d="M210.55,514.46c.08,4.24-2.52,8.54-8.4,8.54h-6.6V506.2h6.6C207.91,506.2,210.48,510.3,210.55,514.46ZM198.7,520h3.45c3.82,0,5.33-2.78,5.26-5.52s-1.61-5.23-5.26-5.23H198.7Z"/><path class="cls-1" d="M222.05,511.17h2.81V523H222.1l-.15-1.73a4.49,4.49,0,0,1-3.84,2.09c-3.5,0-6.09-2.14-6.09-6.29s2.71-6.22,6.16-6.19A4.33,4.33,0,0,1,222,512.8Zm-7.11,5.9a3.39,3.39,0,0,0,3.51,3.6c4.61,0,4.61-7.17,0-7.17A3.37,3.37,0,0,0,214.94,517.07Z"/><path class="cls-1" d="M231,507.83v3.36h3.27v2.52h-3.29v5.11a1.47,1.47,0,0,0,1.53,1.68,3.28,3.28,0,0,0,1.42-.36l.82,2.5a6.4,6.4,0,0,1-2.43.5c-2.57.1-4.25-1.36-4.25-4.32v-5.11h-2.2v-2.52H228v-3.05Z"/><path class="cls-1" d="M248.16,517.1a6.16,6.16,0,1,1-6.19-6.17A6,6,0,0,1,248.16,517.1Zm-9.38,0a3.23,3.23,0,1,0,6.43,0,3.35,3.35,0,0,0-3.22-3.51A3.25,3.25,0,0,0,238.78,517.1Z"/><path class="cls-1" d="M257.9,514.31a4,4,0,0,0-2.92-1c-1.4,0-2.16.43-2.16,1.17s.69,1.2,2.2,1.3c2.24.14,5.07.65,5.07,3.79,0,2.09-1.71,3.89-5.09,3.89a6.91,6.91,0,0,1-5.47-2.11l1.44-2.09a6.5,6.5,0,0,0,4.08,1.65c1.1,0,2.13-.55,2.13-1.41s-.67-1.15-2.35-1.25c-2.23-.17-4.89-1-4.89-3.67s2.83-3.7,5-3.7a6.36,6.36,0,0,1,4.61,1.56Z"/></g></g><g id="Grupo_44" data-name="Grupo 44"><g id="Rectángulo_45" data-name="Rectángulo 45"><rect class="cls-4" x="368.93" y="95.18" width="55.02" height="11.29" rx="5.64" transform="translate(91.2 373.15) rotate(-56.01)"/></g><g id="Trazado_29" data-name="Trazado 29"><path class="cls-5" d="M353,113.52,342,94.68s0-9.6,11-6.21c5.08-10.72,5.08-3.38,5.08-3.38s-.57-9.6,4.51-5.65,1.13,34.08,1.13,34.08Z"/></g><g id="Rectángulo_47" data-name="Rectángulo 47"><path class="cls-6" d="M375.73,69h0a3.53,3.53,0,0,1,3.52,3.53v42.33a3.53,3.53,0,0,1-3.52,3.53h0a3.53,3.53,0,0,1-3.53-3.53V72.53A3.53,3.53,0,0,1,375.73,69Z"/></g><g id="Rectángulo_46" data-name="Rectángulo 46"><path class="cls-6" d="M375.73,84.52h0a12,12,0,0,1,12,12v9.87a12,12,0,0,1-12,12h0a12,12,0,0,1-12-12V96.52A12,12,0,0,1,375.73,84.52Z"/></g><g id="Trazado_28" data-name="Trazado 28"><path class="cls-7" d="M338.33,102.16l16.94,36.69h32.45l22.58-36.69Z"/></g></g><g id="Grupo_45" data-name="Grupo 45"><g id="Grupo_32" data-name="Grupo 32"><g id="Trazado_30" data-name="Trazado 30"><path class="cls-8" d="M432.78,144.28H322.33a6,6,0,0,1,0-12H426.78V104a6,6,0,0,1,12,0v34.28A6,6,0,0,1,432.78,144.28Z"/></g><g id="Elipse_11" data-name="Elipse 11"><circle class="cls-9" cx="368.67" cy="167.12" r="14"/></g><g id="Elipse_12" data-name="Elipse 12"><circle class="cls-9" cx="483.67" cy="167.12" r="14"/></g><g id="Trazado_31" data-name="Trazado 31"><path class="cls-8" d="M483.24,173.7a4,4,0,0,1-3.51-2.09L463,140.85H431.83a4,4,0,0,1,0-8h33.56a4,4,0,0,1,3.51,2.09l10.34,19V111.34l-12.36,4.94a4,4,0,0,1-3-7.42l17.86-7.15a4,4,0,0,1,5.48,3.72V169.7a4,4,0,0,1-3,3.87A3.74,3.74,0,0,1,483.24,173.7Z"/></g></g></g><g id="Línea_10" data-name="Línea 10"><path class="cls-2" d="M392,332.5a6,6,0,0,1,6-6h0a6,6,0,0,1,6,6h0a6,6,0,0,1-6,6h0A6,6,0,0,1,392,332.5Zm-57,0a6,6,0,0,1,6-6h0a6,6,0,0,1,6,6h0a6,6,0,0,1-6,6h0A6,6,0,0,1,335,332.5Zm-57,0a6,6,0,0,1,6-6h0a6,6,0,0,1,6,6h0a6,6,0,0,1-6,6h0A6,6,0,0,1,278,332.5Z"/></g><g id="Línea_11" data-name="Línea 11"><path class="cls-10" d="M563,332.5a6,6,0,0,1,6-6h0a6,6,0,0,1,6,6h0a6,6,0,0,1-6,6h0A6,6,0,0,1,563,332.5Zm-57,0a6,6,0,0,1,6-6h0a6,6,0,0,1,6,6h0a6,6,0,0,1-6,6h0A6,6,0,0,1,506,332.5Zm-57,0a6,6,0,0,1,6-6h0a6,6,0,0,1,6,6h0a6,6,0,0,1-6,6h0A6,6,0,0,1,449,332.5Z"/></g><g id="Grupo_46" data-name="Grupo 46"><g id="Trazado_33" data-name="Trazado 33"><path class="cls-9" d="M643.68,318.24V293H650v18.48Z"/><path class="cls-9" d="M643.68,321.24a3,3,0,0,1-3-3V293a3,3,0,0,1,3-3H650a3,3,0,0,1,3,3v18.48a3,3,0,0,1-.8,2l-6.31,6.76A3,3,0,0,1,643.68,321.24Zm3-25.24v14.63l.31-.33V296Z"/></g><g id="Trazado_32" data-name="Trazado 32"><path class="cls-9" d="M643.68,348.45h13.53V335.82H668v12.63h14v-30.2l-18.48-21.64-19.84,21.63Z"/><path class="cls-9" d="M682,351.45H668a3,3,0,0,1-3-3v-9.62h-4.82v9.62a3,3,0,0,1-3,3H643.68a3,3,0,0,1-3-3V318.24a3,3,0,0,1,.79-2l19.84-21.64a3,3,0,0,1,2.26-1,3,3,0,0,1,2.23,1.05l18.48,21.64a3,3,0,0,1,.72,1.95v30.2A3,3,0,0,1,682,351.45Zm-11-6h8v-26.1l-15.56-18.22-16.76,18.28v26h7.53v-9.62a3,3,0,0,1,3-3H668a3,3,0,0,1,3,3Z"/></g></g><g id="Grupo_47" data-name="Grupo 47"><g id="Línea_9" data-name="Línea 9"><path class="cls-1" d="M157.29,343.75a1.51,1.51,0,0,1-1-.37L145,333.6a1.5,1.5,0,0,1,2-2.27l11.29,9.79a1.5,1.5,0,0,1-1,2.63Z"/></g><g id="Trazado_34" data-name="Trazado 34"><path class="cls-1" d="M157.29,343.75a1.48,1.48,0,0,1-.93-.32,1.5,1.5,0,0,1-.25-2.1l14.86-19a1.5,1.5,0,1,1,2.36,1.84l-14.86,19A1.51,1.51,0,0,1,157.29,343.75Z"/></g></g></g></g></svg>