<svg xmlns="http://www.w3.org/2000/svg" viewBox="0 0 643.49 415.17"><defs><style>.cls-1{fill:#853f42;}.cls-2{fill:#74f634;}.cls-3{fill:#e1343b;}.cls-4{fill:#ecb45f;}.cls-5{fill:#67a4f5;}.cls-6{fill:#6aa1f5;}.cls-7{fill:#97ec15;}.cls-8{fill:#f2a8c4;}.cls-9{fill:#49797a;}.cls-10{fill:#c44346;}.cls-11{fill:#ff1d25;}.cls-12{fill:#f7242c;}</style></defs><title>Dale imagotipoRecurso 6</title><g id="Capa_2" data-name="Capa 2"><g id="Capa_1-2" data-name="Capa 1"><g id="Grupo_48" data-name="Grupo 48"><g id="Rectángulo_45" data-name="Rectángulo 45"><path class="cls-1" d="M382.92,133.91h0a10,10,0,0,1,2.69,13.83l-43.17,64a10,10,0,0,1-13.83,2.69h0a10,10,0,0,1-2.69-13.83l43.17-64A10,10,0,0,1,382.92,133.91Z"/></g><g id="Trazado_29" data-name="Trazado 29"><path class="cls-2" d="M279.09,196.6l-19.43-33.26s0-16.94,19.43-11c9-18.93,9-6,9-6s-1-16.94,8-10,2,60.17,2,60.17Z"/></g><g id="Rectángulo_47" data-name="Rectángulo 47"><path class="cls-3" d="M319.2,118h0a6.23,6.23,0,0,1,6.23,6.23V199a6.23,6.23,0,0,1-6.23,6.23h0A6.23,6.23,0,0,1,313,199V124.23A6.23,6.23,0,0,1,319.2,118Z"/></g><g id="Rectángulo_46" data-name="Rectángulo 46"><rect class="cls-3" x="298.02" y="145.4" width="42.35" height="59.79" rx="16"/></g><g id="Trazado_28" data-name="Trazado 28"><path class="cls-4" d="M253.18,176.54l29.9,64.77h57.3l39.86-64.77Z"/></g></g><g id="Grupo_49" data-name="Grupo 49"><g id="Rectángulo_76" data-name="Rectángulo 76"><path class="cls-5" d="M52.54,250.2h0a12.69,12.69,0,0,1,9,15.53L24.92,402.15a12.66,12.66,0,0,1-15.52,9h0a12.66,12.66,0,0,1-9-15.52L37,259.16A12.69,12.69,0,0,1,52.54,250.2Z"/></g><g id="Rectángulo_77" data-name="Rectángulo 77"><path class="cls-6" d="M102.63,414.72h0a12.69,12.69,0,0,1-15.53-9L50.53,269.34a12.67,12.67,0,0,1,9-15.53h0a12.67,12.67,0,0,1,15.52,9L111.59,399.2A12.67,12.67,0,0,1,102.63,414.72Z"/></g><g id="Rectángulo_73" data-name="Rectángulo 73"><path class="cls-7" d="M56.68,87h0a18.5,18.5,0,0,1,18.5,18.5v153A18.5,18.5,0,0,1,56.68,277h0a18.5,18.5,0,0,1-18.5-18.5v-153A18.5,18.5,0,0,1,56.68,87Z"/></g><g id="Rectángulo_74" data-name="Rectángulo 74"><path class="cls-7" d="M50.59,96.13h0a12.67,12.67,0,0,1,17.92,0L168.37,196a12.68,12.68,0,0,1,0,17.93h0a12.67,12.67,0,0,1-17.92,0L50.59,114.05A12.67,12.67,0,0,1,50.59,96.13Z"/></g><g id="Rectángulo_75" data-name="Rectángulo 75"><path class="cls-8" d="M90.92,136.46h0a12.67,12.67,0,0,1,17.92,0L168.37,196a12.68,12.68,0,0,1,0,17.93h0a12.67,12.67,0,0,1-17.92,0L90.92,154.38A12.67,12.67,0,0,1,90.92,136.46Z"/></g><g id="Elipse_13" data-name="Elipse 13"><circle class="cls-8" cx="56.18" cy="44" r="44"/></g></g><g id="Grupo_50" data-name="Grupo 50"><g id="Rectángulo_76-2" data-name="Rectángulo 76-2"><path class="cls-9" d="M634.09,411.1h0a12.67,12.67,0,0,1-15.52-9L582,265.72a12.68,12.68,0,0,1,9-15.53h0a12.69,12.69,0,0,1,15.53,9l36.57,136.42A12.67,12.67,0,0,1,634.09,411.1Z"/></g><g id="Rectángulo_77-2" data-name="Rectángulo 77-2"><path class="cls-9" d="M584,253.82h0a12.67,12.67,0,0,1,9,15.53L556.39,405.77a12.67,12.67,0,0,1-15.53,9h0a12.67,12.67,0,0,1-9-15.52l36.58-136.42A12.67,12.67,0,0,1,584,253.82Z"/></g><g id="Rectángulo_73-2" data-name="Rectángulo 73-2"><path class="cls-10" d="M586.84,87h0a18.5,18.5,0,0,1,18.5,18.5v153a18.5,18.5,0,0,1-18.5,18.5h0a18.5,18.5,0,0,1-18.5-18.5v-153A18.5,18.5,0,0,1,586.84,87Z"/></g><g id="Rectángulo_74-2" data-name="Rectángulo 74-2"><path class="cls-10" d="M475.15,213.92h0a12.68,12.68,0,0,1,0-17.93L575,96.13a12.67,12.67,0,0,1,17.92,0h0a12.67,12.67,0,0,1,0,17.92l-99.86,99.87A12.67,12.67,0,0,1,475.15,213.92Z"/></g><g id="Rectángulo_75-2" data-name="Rectángulo 75-2"><path class="cls-8" d="M475.15,213.92h0a12.68,12.68,0,0,1,0-17.93l59.53-59.53a12.67,12.67,0,0,1,17.92,0h0a12.67,12.67,0,0,1,0,17.92l-59.53,59.54A12.67,12.67,0,0,1,475.15,213.92Z"/></g><g id="Elipse_13-2" data-name="Elipse 13-2"><circle class="cls-8" cx="587.34" cy="44" r="44"/></g><g id="Trazado_35" data-name="Trazado 35"><path class="cls-11" d="M543.34,41c0-22.64,19.7-41,44-41s44,18.36,44,41Z"/></g><g id="Línea_12" data-name="Línea 12"><path class="cls-12" d="M549.34,41h-45a3,3,0,1,1,0-6h45a3,3,0,0,1,0,6Z"/></g></g></g></g></svg>