<svg xmlns="http://www.w3.org/2000/svg" xmlns:xlink="http://www.w3.org/1999/xlink" width="63" height="63" viewBox="0 0 63 63">
  <defs>
    <clipPath id="clip-path">
      <path id="SVGID" d="M277.438,227.444a21.384,21.384,0,0,0-.339-3.809H259.56v7.2h10.022a8.568,8.568,0,0,1-3.716,5.621v4.672h6.018a18.162,18.162,0,0,0,5.553-13.687Zm0,0" transform="translate(-259.56 -223.635)" fill="none" clip-rule="evenodd"/>
    </clipPath>
    <clipPath id="clip-path-2">
      <path id="SVGID-2" data-name="SVGID" d="M117.125,304.906a17.779,17.779,0,0,0,12.325-4.512l-6.018-4.672a11.235,11.235,0,0,1-16.726-5.9h-6.222v4.825a18.615,18.615,0,0,0,16.642,10.259Zm0,0" transform="translate(-100.483 -289.822)" fill="none" clip-rule="evenodd"/>
    </clipPath>
    <clipPath id="clip-path-3">
      <path id="SVGID-3" data-name="SVGID" d="M89.751,187.958a11.008,11.008,0,0,1,0-7.077v-4.825H83.53a18.646,18.646,0,0,0,0,16.726l6.222-4.825Zm0,0" transform="translate(-81.549 -176.057)" fill="none" clip-rule="evenodd"/>
    </clipPath>
    <clipPath id="clip-path-4">
      <path id="SVGID-4" data-name="SVGID" d="M117.125,85.4a10.06,10.06,0,0,1,7.119,2.785l5.341-5.341a17.9,17.9,0,0,0-12.46-4.85,18.615,18.615,0,0,0-16.642,10.259l6.222,4.825a11.1,11.1,0,0,1,10.42-7.678Zm0,0" transform="translate(-100.483 -77.989)" fill="none" clip-rule="evenodd"/>
    </clipPath>
  </defs>
  <g id="Grupo_65" data-name="Grupo 65" transform="translate(-654 -641)">
    <circle id="Elipse_24" data-name="Elipse 24" cx="31.5" cy="31.5" r="31.5" transform="translate(654 641)" fill="#fff"/>
    <g id="Grupo_62" data-name="Grupo 62" transform="translate(1403 1934)">
      <g id="Grupo_61" data-name="Grupo 61" transform="translate(-736 -1280)">
        <g id="Grupo_54" data-name="Grupo 54" transform="translate(18.622 15.237)">
          <g id="Grupo_53" data-name="Grupo 53" clip-path="url(#clip-path)">
            <rect id="Rectángulo_101" data-name="Rectángulo 101" width="38.569" height="38.188" transform="translate(-10.346 -10.346)" fill="#3e82f1"/>
          </g>
        </g>
        <g id="Grupo_56" data-name="Grupo 56" transform="translate(1.981 22.161)">
          <g id="Grupo_55" data-name="Grupo 55" clip-path="url(#clip-path-2)">
            <rect id="Rectángulo_102" data-name="Rectángulo 102" width="49.658" height="35.776" transform="translate(-10.346 -10.346)" fill="#32a753"/>
          </g>
        </g>
        <g id="Grupo_58" data-name="Grupo 58" transform="translate(0 10.259)">
          <g id="Grupo_57" data-name="Grupo 57" clip-path="url(#clip-path-3)">
            <rect id="Rectángulo_103" data-name="Rectángulo 103" width="28.894" height="37.418" transform="translate(-10.346 -10.346)" fill="#f9bb00"/>
          </g>
        </g>
        <g id="Grupo_60" data-name="Grupo 60" transform="translate(1.981 0)">
          <g id="Grupo_59" data-name="Grupo 59" clip-path="url(#clip-path-4)">
            <rect id="Rectángulo_104" data-name="Rectángulo 104" width="49.793" height="35.776" transform="translate(-10.346 -10.346)" fill="#e74133"/>
          </g>
        </g>
      </g>
    </g>
  </g>
</svg>
