<svg xmlns="http://www.w3.org/2000/svg" viewBox="0 0 232.24 163.92"><defs><style>.cls-1{fill:#ff1d25;}</style></defs><title>Recurso 1</title><g id="Capa_2" data-name="Capa 2"><g id="Capa_1-2" data-name="Capa 1"><path d="M161.29,82.19v80.59H147.34V82.19Z"/><path d="M187.59,137.87c.92,7,7,12.11,16.95,12.11,5.19,0,12-2,15.22-5.3l9,10.54c-6,6.22-15.8,7.56-24.44,7.56-19.6,0-31.25-12.11-31.25-30.32,0-17.3,11.76-29.75,30.21-29.75,19,0,30.9,13.43,28.71,36.83Zm30.9-11.64c-.92-7.38-6.69-11.07-14.76-11.07-7.61,0-13.83,3.69-15.91,11.07Z"/><path d="M122.33,104.16h12.52a.5.5,0,0,1,.51.5v57.53a.51.51,0,0,1-.5.5l-12.56.08a.51.51,0,0,1-.51-.48l-.32-7.81a.5.5,0,0,0-.92-.25c-3.74,5.68-11.76,8.44-17.62,8.55-16.85.11-29.31-10.27-29.31-30.24,0-19.61,13-29.88,29.66-29.77,7,0,13.77,3,17.3,8a.5.5,0,0,0,.9-.27l.35-5.84A.49.49,0,0,1,122.33,104.16Zm-31,28.12c0,10.85,7.5,17.31,16.85,17.31,22.16,0,22.16-34.5,0-34.5C98.8,115.09,91.3,121.44,91.3,132.28Z"/><path class="cls-1" d="M117.25,0a15.12,15.12,0,0,1,9.6,3.42l.06,0L129,5.52l0,.05,4.54,4.54L167.3,43.87l.06,0,2,2.06.05.05A15.18,15.18,0,0,1,157.7,70.79H76.8A15.18,15.18,0,0,1,65.05,46l2.16-2.15,3.41-3.42L105.5,5.57l2.16-2.15A15.09,15.09,0,0,1,117.25,0Z"/><path d="M61.64,82.12v80.53H48.5l-.92-7.83c-4.38,6.79-11.41,9.1-18.32,9.1C12.56,163.92,0,152.86,0,134.2c0-19.59,12.33-29.73,28.92-29.73,6,0,15.32,3.23,18.66,9.1V82.12ZM14.06,134.2c0,9.9,7.14,16.7,16.12,16.7s16.48-6.45,16.48-16.7a16.21,16.21,0,0,0-16.48-16.59C21.2,117.61,14.06,123.94,14.06,134.2Z"/></g></g></svg>