<svg xmlns="http://www.w3.org/2000/svg" viewBox="0 0 1058 115"><defs><style>.cls-1{fill:#68eef2;}.cls-2{fill:#707070;}.cls-3{fill:#e2e2e2;}.cls-4{fill:#853f42;}.cls-5{fill:#74f634;}.cls-6{fill:#e1343b;}.cls-7{fill:#ecb45f;}.cls-8{fill:#6c7474;}.cls-9{fill:#a29c40;}.cls-10{fill:#ff1d25;}</style></defs><title>Dale imagotipoRecurso 1</title><g id="Capa_2" data-name="Capa 2"><g id="Capa_1-2" data-name="Capa 1"><g id="Línea_7" data-name="Línea 7"><path class="cls-1" d="M840.5,64.5a6,6,0,0,1,6-6h0a6,6,0,0,1,6,6h0a6,6,0,0,1-6,6h0A6,6,0,0,1,840.5,64.5Zm-57,0a6,6,0,0,1,6-6h0a6,6,0,0,1,6,6h0a6,6,0,0,1-6,6h0A6,6,0,0,1,783.5,64.5Zm-57,0a6,6,0,0,1,6-6h0a6,6,0,0,1,6,6h0a6,6,0,0,1-6,6h0A6,6,0,0,1,726.5,64.5Zm-57,0a6,6,0,0,1,6-6h0a6,6,0,0,1,6,6h0a6,6,0,0,1-6,6h0A6,6,0,0,1,669.5,64.5Z"/></g><g id="Línea_8" data-name="Línea 8"><path class="cls-1" d="M358.5,64.5a6,6,0,0,1,6-6h0a6,6,0,0,1,6,6h0a6,6,0,0,1-6,6h0A6,6,0,0,1,358.5,64.5Zm-57,0a6,6,0,0,1,6-6h0a6,6,0,0,1,6,6h0a6,6,0,0,1-6,6h0A6,6,0,0,1,301.5,64.5Zm-57,0a6,6,0,0,1,6-6h0a6,6,0,0,1,6,6h0a6,6,0,0,1-6,6h0A6,6,0,0,1,244.5,64.5Zm-57,0a6,6,0,0,1,6-6h0a6,6,0,0,1,6,6h0a6,6,0,0,1-6,6h0A6,6,0,0,1,187.5,64.5Z"/></g><g id="Grupo_31" data-name="Grupo 31"><g id="Trazado_27" data-name="Trazado 27"><path class="cls-2" d="M1,52.18v58.45H45.83V94.17H78.17v16.46H123V52.18H45.83V17H1Z"/><path class="cls-2" d="M123,111.63H78.17a1,1,0,0,1-1-1V95.17H46.83v15.46a1,1,0,0,1-1,1H1a1,1,0,0,1-1-1V17a1,1,0,0,1,1-1H45.83a1,1,0,0,1,1,1V51.18H123a1,1,0,0,1,1,1v58.45A1,1,0,0,1,123,111.63Zm-43.83-2H122V53.18H45.83a1,1,0,0,1-1-1V18H2v91.63H44.83V94.17a1,1,0,0,1,1-1H78.17a1,1,0,0,1,1,1Z"/></g><g id="Rectángulo_44" data-name="Rectángulo 44"><rect class="cls-3" x="43.56" y="66.37" width="37.45" height="11.35"/></g><g id="Grupo_29" data-name="Grupo 29"><g id="Rectángulo_45" data-name="Rectángulo 45"><path class="cls-4" d="M150.08,68.89h0a4,4,0,0,1,1.08,5.55l-17.33,25.7a4,4,0,0,1-5.55,1.08h0a4,4,0,0,1-1.08-5.55L144.53,70A4,4,0,0,1,150.08,68.89Z"/></g><g id="Trazado_29" data-name="Trazado 29"><path class="cls-5" d="M108.4,94.05,100.6,80.7s0-6.8,7.8-4.4c3.6-7.6,3.6-2.4,3.6-2.4s-.4-6.8,3.2-4,.8,24.15.8,24.15Z"/></g><g id="Rectángulo_47" data-name="Rectángulo 47"><path class="cls-6" d="M124.5,62.5h0A2.5,2.5,0,0,1,127,65V95a2.5,2.5,0,0,1-2.5,2.5h0A2.5,2.5,0,0,1,122,95V65A2.5,2.5,0,0,1,124.5,62.5Z"/></g><g id="Rectángulo_46" data-name="Rectángulo 46"><path class="cls-6" d="M124.5,73.5h0A8.51,8.51,0,0,1,133,82v7a8.51,8.51,0,0,1-8.5,8.5h0A8.51,8.51,0,0,1,116,89V82A8.51,8.51,0,0,1,124.5,73.5Z"/></g><g id="Trazado_28" data-name="Trazado 28"><path class="cls-7" d="M98,86l12,26h23l16-26Z"/></g></g></g><g id="Grupo_30" data-name="Grupo 30"><g id="Rectángulo_45-2" data-name="Rectángulo 45-2"><rect class="cls-4" x="469.93" y="26.18" width="55.02" height="11.29" rx="5.64" transform="translate(192.95 426.47) rotate(-56.01)"/></g><g id="Trazado_29-2" data-name="Trazado 29-2"><path class="cls-5" d="M454,44.52,443,25.68s0-9.6,11-6.21c5.08-10.72,5.08-3.38,5.08-3.38s-.57-9.6,4.51-5.65,1.13,34.08,1.13,34.08Z"/></g><g id="Rectángulo_47-2" data-name="Rectángulo 47-2"><path class="cls-6" d="M476.73,0h0a3.53,3.53,0,0,1,3.52,3.53V45.86a3.53,3.53,0,0,1-3.52,3.53h0a3.53,3.53,0,0,1-3.53-3.53V3.53A3.53,3.53,0,0,1,476.73,0Z"/></g><g id="Rectángulo_46-2" data-name="Rectángulo 46-2"><path class="cls-6" d="M476.73,15.52h0a12,12,0,0,1,12,12v9.87a12,12,0,0,1-12,12h0a12,12,0,0,1-12-12V27.52A12,12,0,0,1,476.73,15.52Z"/></g><g id="Trazado_28-2" data-name="Trazado 28-2"><path class="cls-7" d="M439.33,33.16l16.94,36.69h32.45L511.3,33.16Z"/></g></g><g id="Grupo_33" data-name="Grupo 33"><g id="Grupo_32" data-name="Grupo 32"><g id="Trazado_30" data-name="Trazado 30"><path class="cls-2" d="M533.78,75.28H423.33a6,6,0,0,1,0-12H527.78V35a6,6,0,0,1,12,0V69.28A6,6,0,0,1,533.78,75.28Z"/></g><g id="Elipse_11" data-name="Elipse 11"><circle class="cls-8" cx="469.67" cy="98.12" r="14"/></g><g id="Elipse_12" data-name="Elipse 12"><circle class="cls-8" cx="584.67" cy="98.12" r="14"/></g><g id="Trazado_31" data-name="Trazado 31"><path class="cls-2" d="M584.24,104.7a4,4,0,0,1-3.51-2.09L564,71.85H532.83a4,4,0,0,1,0-8h33.56a4,4,0,0,1,3.51,2.09l10.34,19V42.34l-12.36,4.94a4,4,0,0,1-3-7.42l17.86-7.15a4,4,0,0,1,5.48,3.72V100.7a4,4,0,0,1-3,3.87A3.74,3.74,0,0,1,584.24,104.7Z"/></g></g></g><g id="Grupo_35" data-name="Grupo 35"><g id="Trazado_33" data-name="Trazado 33"><path class="cls-9" d="M989.35,60.25V17h10.81V48.67Z"/><path class="cls-9" d="M989.35,63.25a3,3,0,0,1-1.1-.21,3,3,0,0,1-1.9-2.79V17a3,3,0,0,1,3-3h10.81a3,3,0,0,1,3,3V48.67a3,3,0,0,1-.8,2L991.54,62.3A3,3,0,0,1,989.35,63.25Zm3-43.25V52.64l4.81-5.16V20Z"/></g><g id="Trazado_32" data-name="Trazado 32"><path class="cls-10" d="M989.35,112h23.17V90.38h18.54V112H1055V60.26l-31.67-37.08-34,37.07Z"/><path class="cls-10" d="M1055,115h-23.94a3,3,0,0,1-3-3V93.38h-12.54V112a3,3,0,0,1-3,3H989.35a3,3,0,0,1-3-3V60.25a3,3,0,0,1,.79-2l34-37.07a3,3,0,0,1,2.27-1,3,3,0,0,1,2.23,1.05l31.66,37.08a3,3,0,0,1,.72,1.95V112A3,3,0,0,1,1055,115Zm-20.94-6H1052V61.36L1023.25,27.7l-30.9,33.72V109h17.17V90.38a3,3,0,0,1,3-3h18.54a3,3,0,0,1,3,3Z"/></g></g><g id="Grupo_34" data-name="Grupo 34"><g id="Rectángulo_45-3" data-name="Rectángulo 45-3"><rect class="cls-4" x="964.77" y="56.18" width="55.03" height="11.29" rx="5.64" transform="translate(386.15 849.89) rotate(-56)"/></g><g id="Trazado_29-3" data-name="Trazado 29-3"><path class="cls-5" d="M948.86,74.52l-11-18.84s0-9.6,11-6.21c5.08-10.72,5.08-3.38,5.08-3.38s-.57-9.6,4.51-5.65,1.13,34.08,1.13,34.08Z"/></g><g id="Rectángulo_47-3" data-name="Rectángulo 47-3"><path class="cls-6" d="M971.58,30h0a3.53,3.53,0,0,1,3.52,3.53V75.86a3.53,3.53,0,0,1-3.52,3.53h0a3.53,3.53,0,0,1-3.53-3.53V33.53A3.53,3.53,0,0,1,971.58,30Z"/></g><g id="Rectángulo_46-3" data-name="Rectángulo 46-3"><path class="cls-6" d="M971.58,45.52h0a12,12,0,0,1,12,12v9.87a12,12,0,0,1-12,12h0a12,12,0,0,1-12-12V57.52A12,12,0,0,1,971.58,45.52Z"/></g><g id="Trazado_28-3" data-name="Trazado 28-3"><path class="cls-7" d="M934.18,63.16l16.94,36.69h32.45l22.58-36.69Z"/></g></g></g></g></svg>