<svg xmlns="http://www.w3.org/2000/svg" viewBox="0 0 300 300"><defs><style>.cls-1{fill:#f5f4f6;}.cls-2{fill:#093347;}.cls-3{fill:#36d98e;}</style></defs><title>Recurso 1</title><g id="Capa_2" data-name="Capa 2"><g id="Capa_1-2" data-name="Capa 1"><circle class="cls-1" cx="150" cy="150" r="150"/><g id="Component"><g id="Group"><g id="Vector_2" data-name="Vector 2"><path class="cls-2" d="M112.62,220.19h-53c-4.64,0-9,0-11.86-3.9s-1.33-7.87.27-12.06l24.23-66.08,12.53,4.25-23.83,65H112L182.48,77.29c3.08-5.7,5.75-10.61,11.88-10.27s8.18,5.52,10.55,11.51c1.19,3,3.94,10,7.3,18.52,7.25,18.41,17.17,43.62,20.31,51.44l-12.39,4.61C217,145.24,207,120,199.78,101.58L193.27,85,123.56,213.8c-1,1.92-2,3.74-4.29,5.07S114.87,220.19,112.62,220.19Z"/></g><g id="Vector_2-2" data-name="Vector 2"><path class="cls-3" d="M239.79,220.19h-53c-2.26,0-4.39,0-6.66-1.33s-3.25-3.13-4.29-5.06L106.1,85c-.89,2.26-1.75,4.43-2.6,6.6-2.33,5.91-4.74,12-7.9,19.89l-12.4-4.61c3.15-7.83,5.55-13.92,7.87-19.81,1.1-2.8,2.2-5.59,3.38-8.57,2.37-6,4.42-11.18,10.56-11.52s8.79,4.57,11.88,10.27L187.32,207.4h51.11l-9.07-23.83,12.48-4.39,9.54,25c1.59,4.19,3.1,8.15.27,12.05S244.43,220.19,239.79,220.19Z"/></g><path class="cls-2" d="M236.61,165.85a7.13,7.13,0,1,1-7.12-6.85A7,7,0,0,1,236.61,165.85Z"/><path class="cls-3" d="M90.44,125.66a7.13,7.13,0,1,1-7.12-6.85A7,7,0,0,1,90.44,125.66Z"/></g></g></g></g></svg>