<svg id="Grupo_105" data-name="Grupo 105" xmlns="http://www.w3.org/2000/svg" width="105" height="105" viewBox="0 0 105 105">
  <path id="Trazado_52" data-name="Trazado 52" d="M52.5,0A52.5,52.5,0,1,1,0,52.5,52.5,52.5,0,0,1,52.5,0Z" fill="#f3f3f3"/>
  <path id="Trazado_50" data-name="Trazado 50" d="M-93.667-84.667c14.43,0,28.86,14.43,28.86,28.86s-14.43,28.86-28.86,28.86-28.86-14.43-28.86-28.86S-108.1-84.667-93.667-84.667Z" transform="translate(143 104)" fill="#f5cfcf"/>
  <path id="Trazado_51" data-name="Trazado 51" d="M-102.9-102.439c-3.66,1.525-15.25,3.66-16.775,19.825s20.826,17.537,24.095,18.3S-83.684-59.74-82.464-51.5-84.6-22.835-84.6-22.835l-3.66,11.59s11.271-11.228,14.13-12,4.475,7.73,4.475,7.73,5.795-3.05,7.015-11.285,6.1-56.424-7.015-67.709S-99.239-103.964-102.9-102.439Z" transform="translate(144.482 109.579)" fill="#9f4444"/>
</svg>
