<svg xmlns="http://www.w3.org/2000/svg" width="104" height="106.282" viewBox="0 0 104 106.282">
  <g id="Grupo_99" data-name="Grupo 99" transform="translate(-67 -49)">
    <circle id="Elipse_31" data-name="Elipse 31" cx="52" cy="52" r="52" transform="translate(67 49)" fill="#fff"/>
    <path id="Trazado_42" data-name="Trazado 42" d="M4.915,68.231C3.036,64.206,7.763,55.2,7.763,55.2s7.515-8.588,16.64-8.588,6.441-15.835,4.563-15.835-9.685-11.482-9.148-14.166S26.318-1.838,39.7.177,58.778,8.3,57.839,19.814,49.631,31.578,47.484,33.188s-2.684,13.419,0,13.419S61.708,51.975,62.513,55.2c.663,2.654,4.086,14.852,3.72,19.312-.048.586-1.249-.044-1.249-.044S48.809,82.052,35,80.789C20.886,79.5,5.883,70.3,4.915,68.231Z" transform="matrix(0.999, -0.035, 0.035, 0.999, 80.207, 72.482)" fill="none" stroke="#ff1d25" stroke-width="4"/>
  </g>
</svg>
